<svg width="1330" height="690" viewBox="0 0 1330 690" fill="none" xmlns="http://www.w3.org/2000/svg">
<path fill-rule="evenodd" clip-rule="evenodd" d="M380.689 426.363C389.491 426.112 394.563 422.145 401.634 420.158C407.39 416.615 416.775 416.692 422.569 413.182C430.195 411.491 434.82 406.817 440.407 403.106C445.643 399.033 450.59 394.676 455.921 390.696C459.686 384.113 464.579 378.678 466 369.745V349.592C464.68 340.575 462.044 332.864 459.798 324.77C458.235 323.754 457.176 322.224 456.694 320.122C454.048 318.124 451.717 315.793 449.719 313.15C446.182 311.761 443.029 309.991 441.178 306.939C442.931 306.37 441.485 302.583 441.956 300.74C443.71 300.16 442.261 296.381 442.73 294.535C444.954 294.423 442.054 289.212 444.276 289.101C443.674 285.899 445.471 285.117 445.063 282.12C446.468 275.128 451.284 264.997 446.609 258.86C445.61 257.782 443.236 258.09 441.175 258.079C440.26 258.452 439.419 258.909 438.85 259.631C435.683 260.859 434.102 263.668 431.096 265.065C429.051 267.404 425.615 268.368 424.115 271.27C418.798 274.986 414.937 280.176 409.377 283.672C405.816 283.476 404.561 285.569 401.626 285.994C398.313 286.038 395.941 287.037 393.091 287.557C387.21 288.382 381.361 289.264 375.249 289.877C372.584 290.217 370.909 289.569 369.044 289.101C366.605 288.722 367.288 291.477 364.397 290.658C356.705 289.648 345.556 291.295 335.7 290.658C332.61 289.86 329.076 289.52 325.615 289.101C321.638 286.623 318.084 283.71 315.528 279.784C309.067 277.731 304.537 273.737 297.697 272.035C293.73 270.837 293.475 265.915 287.615 266.606C281.027 266.995 280.332 273.279 278.315 278.24C278.503 290.19 276.981 299.569 278.315 310.816C278.034 313.384 275.99 314.171 274.435 315.475C273.047 316.931 272.331 319.055 270.555 320.122C268.23 323.488 266.635 327.582 264.345 330.975C263.953 335.756 262.447 339.42 262.02 344.152V363.551C263.572 366.179 262.853 369.293 263.572 372.081C263.653 372.416 264.968 373.973 265.121 374.415C265.535 375.563 265.633 376.74 265.902 377.51C266.662 379.786 267.364 381.254 267.443 382.945C267.487 383.715 268.135 383.44 268.225 383.721C269.692 388.022 270.357 392.419 272.107 396.128C272.799 397.606 274.209 399.174 275.208 400.786C276.512 402.882 276.875 403.487 278.315 404.652C278.571 404.865 278.092 405.94 278.315 406.215C281.008 409.501 284.928 411.219 286.845 414.74C293.347 417.797 298.974 421.731 308.558 421.72C309.135 423.466 312.903 422.017 314.768 422.491C315.89 423.692 318.73 423.182 320.962 423.272C324.769 424.383 329.1 424.963 334.156 424.819C332.384 426.929 330.72 429.137 328.725 431.024C327.26 433.692 323.878 434.449 323.287 438.005C320.837 440.207 321.913 445.927 319.41 448.086C310.75 448.465 303.11 447.841 297.697 444.98C290.21 436.711 286.894 424.252 276.76 418.608C269.012 417.204 261.102 419.205 252.717 419.384C249.444 422.05 245.14 423.708 241.861 426.36C237.914 428.364 233.361 429.769 233.323 435.671C241.257 441.596 247.878 430.757 256.602 430.242C261.696 430.057 265.053 431.609 270.558 431.018C273.839 435.23 276.251 440.313 278.318 445.748C281.01 449.001 283.858 452.102 286.077 455.835C288.007 455.696 288.492 457.03 289.175 458.163C294.67 460.935 300.818 463.056 308.561 463.592H320.197C324.216 468.027 324.981 474.61 324.069 481.422C323.911 482.618 322.944 483.971 322.525 485.31C321.744 487.698 321.414 489.729 320.968 491.504C320.279 494.26 317.72 496.631 317.864 499.264C312.879 503.062 308.822 507.789 300.022 507.799C294.694 507.699 294.776 502.194 288.397 503.136C287.705 500.217 287.319 496.988 282.971 497.712C279.644 499.073 279.251 505.646 280.637 509.357C281.911 513.25 283.809 516.52 285.293 520.198C291.261 525.085 303.154 524.064 313.99 524.081C315.618 522.602 317.682 521.581 320.197 520.974C325.689 514.317 330.475 506.964 335.703 500.034C336.253 496.451 338.262 494.317 338.801 490.734C339.705 488.213 342.806 484.848 345.006 486.086C346.522 497.497 345.48 511.45 345.782 524.081C344.069 526.76 343.386 530.484 341.905 533.387C337.57 533.18 334.725 534.487 332.596 536.499C333.358 540.907 335.907 543.529 338.798 545.794C346.893 546.654 351.374 543.891 355.864 541.146C358.012 536.308 360.038 531.356 361.293 525.641C361.587 515.815 361.127 504.099 361.293 492.294C362.33 487.886 363.618 483.748 363.621 478.324C365.265 474.537 363.724 467.578 365.949 464.371C366.12 469.358 367.187 473.464 366.73 479.1C369.425 496.824 379.039 507.639 384.555 522.534C390.03 527.667 395.364 532.929 405.495 533.387C406.159 532.232 408 532.26 409.375 531.84C411.196 529.267 413.126 526.798 412.481 521.764C411.871 521.59 411.577 521.11 411.708 520.201C409.573 515.622 402.892 515.581 399.293 512.452C397.153 505.551 392.908 500.742 389.989 494.605C388.1 488.746 386.589 482.503 383.774 477.551C384.002 473.451 381.775 471.798 382.233 467.474C380.626 467.273 382.026 464.066 380.681 463.592C380.101 460.937 383.834 462.604 383.014 459.715C386.259 462.917 387.498 468.144 389.216 472.887C394.264 480.519 398.914 488.526 406.271 493.832C412.367 500.677 420.366 505.6 431.096 507.797H441.172C441.298 506.367 443.805 507.318 444.273 506.245C444.793 505.202 445.942 504.799 447.38 504.693C450.192 501.826 452.071 498.014 454.355 494.605C455.929 491.006 457.328 482.939 453.585 480.652C443.86 480.486 442.975 489.177 434.967 490.734C420.429 487.388 410.858 475.738 404.733 465.141C404.272 464.371 404.43 463.695 403.948 462.816C399.677 454.967 394.534 447.155 391.533 438.77C389.243 436.924 387.852 434.185 386.112 431.8C384.748 431.097 383.703 430.054 383.014 428.699C381.508 429.058 379.055 426.608 380.689 426.363ZM426.456 309.262C426.489 309.308 427.162 307.8 427.23 307.704C427.273 307.653 427.167 306.934 427.23 306.934C429.99 306.449 427.303 310.378 426.456 309.262ZM421.795 328.65C420.211 328.416 420.273 326.545 418.691 326.322C419.783 322.238 422.187 319.472 423.347 315.469C424.741 315.363 424.984 316.406 426.456 316.245C427.731 323.204 422.906 324.059 421.795 328.65ZM427.23 336.404C427.189 333.011 429.16 331.617 430.331 329.42C431.698 330.128 431.749 332.132 432.656 333.297C432.852 336.077 430.328 336.142 430.331 338.737C428.749 338.508 428.809 336.627 427.23 336.404ZM450.489 366.65C452.139 366.895 450.378 370.031 449.724 370.527C450.092 372.972 448.608 373.557 448.17 375.18C445.866 377.015 445.991 381.278 441.965 381.384C438.346 381.327 442.877 379.609 442.738 378.278C443.446 376.906 444.614 376.013 445.071 374.406C447.486 372.424 448.858 369.416 450.489 366.65ZM444.284 359.663C444.252 357.303 445.932 356.652 446.618 355.021C450.378 356.009 446.057 361.858 444.284 359.663ZM445.071 328.65C447.021 331.473 450.718 337.732 447.391 341.051C444.29 340.27 444.284 336.404 441.965 334.852C442.324 332.107 443.922 330.607 445.071 328.65ZM442.735 365.098C440.026 367.809 437.725 370.938 435.76 374.409C433.255 372.351 436.416 369.427 437.312 368.204C438.891 366.688 439.852 364.54 441.183 362.77C442.136 363.107 442.784 363.766 442.735 365.098ZM440.41 323.215C440.396 324.762 438.297 324.204 438.861 326.322C435.923 325.903 435.441 323.019 434.978 320.117C438.158 319.785 439.038 321.748 440.41 323.215ZM437.312 341.838C439.89 343.73 442.653 347.98 439.639 351.139C437.186 350.48 437.429 347.134 434.976 346.48C435.719 344.901 436.568 343.401 437.312 341.838ZM432.653 359.663C429.808 358.073 432.61 355.623 431.872 351.92C433.595 352.527 433.818 354.621 434.978 355.792C435.357 358.226 432.898 357.834 432.653 359.663ZM434.208 275.133C436.451 277.682 432.708 280.846 433.435 284.445C430.121 284.652 430.059 281.611 428.003 280.557C429.737 278.42 432.871 277.679 434.208 275.133ZM422.571 283.663H424.899C424.937 288.959 432.705 289.226 430.328 294.527C426.32 293.097 424.548 289.444 421.793 286.767C421.471 285.142 422.326 284.714 422.571 283.663ZM417.918 293.756C419.173 293.528 419.255 294.481 420.246 294.527C420.499 298.137 424.646 297.873 424.899 301.499C423.851 302.265 423.347 303.574 422.571 304.606C418.64 304.149 418.626 299.779 415.59 298.407C415.898 296.386 417.907 296.057 417.918 293.756ZM417.918 334.849C415.234 335.391 415.138 332.132 416.372 330.967C417.94 331.533 419.53 333.308 417.918 334.849ZM410.948 292.191C411.351 290.996 411.746 292.142 411.719 292.967C410.33 293.193 410.126 292.234 410.948 292.191ZM411.719 305.374C412.974 305.161 413.047 306.112 414.044 306.15C414.058 309.499 417.91 309.006 417.921 312.36C415.495 315.619 414.006 319.82 411.722 323.213C408.242 322.818 406.382 320.798 403.959 319.341C406.698 314.835 408.974 309.882 411.719 305.374ZM407.836 331.745H397.752C397.773 329.426 399.775 329.102 400.085 327.087C402.07 327.182 402.802 328.522 403.959 329.42C405.939 329.515 407.943 329.57 407.836 331.745ZM401.637 298.404C401.419 297.143 402.369 297.07 402.407 296.068C405.416 295.398 405.171 297.966 407.066 298.404C405.939 301.668 403.036 303.163 402.407 306.934C399.423 308.344 400.082 313.395 396.205 313.915C393.159 311.628 395.859 307.922 397.752 306.152C398.615 303.136 399.903 300.547 401.637 298.404ZM395.429 296.844C393.221 300.073 391.127 303.4 389.227 306.931C383.265 304.481 387.125 294.287 395.429 296.844ZM390 319.344C391.536 319.344 390.989 321.448 393.101 320.885C392.816 325.5 389.81 327.419 390.784 333.297C390.093 332.696 389.028 332.461 387.672 332.527C389.331 329.624 387.585 328.119 386.123 326.322C386.926 323.507 388.696 321.647 390 319.344ZM384.566 313.915C383.714 317.961 380.583 319.733 379.91 323.991C378.339 323.253 376.842 322.407 375.26 321.661C376.684 317.656 379.638 315.178 380.689 310.808C382.965 310.857 383.567 312.575 384.566 313.915ZM381.473 297.625C381.871 298.02 380.909 298.608 380.692 298.401C380.291 297.993 381.258 297.413 381.473 297.625ZM368.287 310.032C369.948 308.597 370.337 305.869 372.162 304.603C371.938 303.348 372.897 303.275 372.948 302.27C374.528 302.504 374.459 304.375 376.039 304.603C375.516 307.432 373.104 308.39 372.162 310.808C370.425 312.431 370.272 315.635 367.509 316.243C364.944 314.339 367.332 312.469 368.287 310.032ZM374.487 330.969C374.149 332.715 370.667 331.282 369.055 331.745C369.338 330.73 370.425 330.528 370.607 329.42C373 328.835 372.096 331.552 374.487 330.969ZM346.569 297.625H367.506C366.528 302.842 362.101 304.628 360.53 309.262C358.213 309.251 357.898 307.242 355.872 306.931C356.46 303.629 359.499 302.798 358.979 298.401C355.05 298.083 354.437 301.107 351.998 302.267C350.056 302.412 349.575 301.08 348.902 299.942C348.172 299.12 346.041 299.705 346.569 297.625ZM363.632 331.745C362.3 333.526 357.713 332.026 355.091 332.527C356.969 329.213 359.281 326.368 360.53 322.445C361.679 322.84 362.488 323.594 363.632 323.991C361.935 325.848 361.5 329.967 363.632 331.745ZM351.219 323.991C348.948 323.934 348.347 322.216 347.342 320.885C347.925 317.843 350.372 316.678 351.219 313.912C353.021 314.429 353.294 316.479 355.091 317.008C353.884 319.417 352.795 321.949 351.219 323.991ZM347.342 332.527C345.24 333 341.189 331.549 340.369 333.297C338.05 331.685 342.311 330.144 341.91 327.868C343.865 329.276 347.225 329.273 347.342 332.527ZM340.372 304.603C342.852 305.216 343.751 307.41 345.79 308.48C345.148 311.963 341.791 312.744 341.137 316.245C338.594 315.938 337.723 313.969 335.711 313.144C336.106 309.134 339.781 308.415 340.372 304.603ZM321.749 297.625V298.401C328.126 296.55 330.429 301.486 336.492 299.166C336.626 301.889 333.868 301.728 333.378 303.83C331.338 304.366 331.739 307.35 329.506 307.702C325.773 306.525 323.576 303.814 320.97 301.497C320.796 300.035 321.853 299.795 321.746 298.401C319.879 298.083 320.061 299.814 317.867 299.166C317.074 296.563 320.284 297.966 321.749 297.625ZM334.94 322.445C333.849 327.544 329.016 328.933 328.735 334.852C326.484 334.256 324.27 333.624 323.298 331.745C324.494 326.997 328.03 324.582 329.509 320.117C332.512 319.695 332.702 322.094 334.94 322.445ZM316.323 308.48C316.729 308.886 315.757 309.48 315.539 309.262C315.149 308.856 316.105 308.268 316.323 308.48ZM317.869 310.032C319.568 311.696 322.185 312.442 323.296 314.685C321.15 319.518 317.303 322.646 315.536 327.868C312.37 326.657 309.707 324.911 307.006 323.215C308.893 317.084 315.536 315.706 317.869 310.032ZM310.115 341.838C307.526 342.345 306.323 344.248 303.924 344.939C300.869 344.359 299.704 341.914 296.935 341.051C297.923 336.611 300.828 334.089 302.369 330.199C306.889 330.321 308.133 333.736 311.67 334.852C310.837 336.861 309.783 338.658 310.115 341.838ZM293.055 330.969C291.62 332.331 290.711 336.766 288.402 334.852C289.679 330.177 292.437 327.002 294.607 323.218C295.634 323.493 295.83 324.585 296.932 324.764C296.399 327.596 293.997 328.549 293.055 330.969ZM299.263 317.01C299.663 317.413 298.702 317.993 298.484 317.786C298.081 317.392 299.053 316.795 299.263 317.01ZM314.776 294.527C312.683 296.808 310.475 292.645 308.566 292.194C310.401 290.16 312.604 294.32 314.776 294.527ZM308.566 301.497C306.271 306.193 302.024 308.921 300.028 313.915C298.452 313.681 298.514 311.81 296.93 311.581C298.626 306.046 301.939 302.112 304.689 297.628C306.731 298.159 306.328 301.151 308.566 301.497ZM291.501 293.756V282.109C295.179 284.124 299.549 285.439 303.137 287.549C301.547 288.273 300.984 290.043 300.028 291.42C300.453 294.159 297.281 293.329 297.706 296.068C295.184 298.194 293.676 301.352 292.282 304.603C290.488 302.512 292.007 297.121 291.501 293.756ZM289.181 311.579C289.587 310.383 289.987 311.527 289.954 312.36C288.566 312.575 288.367 311.628 289.181 311.579ZM287.626 317.01C291.198 318.41 285.802 320.403 286.085 323.215C283.823 324.321 284.321 328.187 281.421 328.65C281.955 323.232 285.505 320.833 287.626 317.01ZM278.326 357.338C280.294 351.827 282.418 346.448 284.52 341.049H286.853C285.364 345.584 282.274 351.52 284.52 357.338C282.595 359.301 280.509 361.082 279.872 364.324C277.879 363.464 278.342 360.156 278.326 357.338ZM295.378 351.139C293.235 351.324 293.613 354.022 292.282 355.021C291.963 356.889 293.69 356.701 293.053 358.893C286.401 366.119 284.422 385.901 289.951 396.122C290.888 396.043 290.428 397.249 289.951 396.122C285.337 392.207 283.393 385.626 281.416 379.057C282.565 371.67 286.183 366.756 287.621 359.663C289.418 359.143 289.701 357.096 291.495 356.557C290.951 353.684 292.821 353.232 292.279 350.357C293.183 349.889 293.406 344.896 295.375 348.029C298.795 347.921 295.595 350.229 295.378 351.139ZM334.94 410.084C327.115 409.106 319.342 408.096 311.667 406.977C308.776 404.44 305.971 401.815 303.921 398.436C302.712 396.797 301.686 394.984 300.809 393.024C299.44 391.796 299.788 388.861 298.484 387.584C298.419 380.023 299.184 373.296 300.028 366.65C301.152 362.086 304.891 360.134 307.006 356.557C310.298 354.158 312.598 350.771 316.32 348.814C318.093 348.25 320.282 348.117 321.746 347.256C323.135 346.314 326.263 347.123 327.175 345.715C346.073 346.763 359.469 342.334 378.358 343.387C382.347 344.008 383.452 341.743 386.894 341.841H403.957C405.204 342.048 405.302 341.098 406.282 341.054C408.65 340.49 408.574 342.394 410.948 341.841C412.909 341.931 413.954 342.957 414.044 344.942C415.065 345.729 416.895 345.696 417.921 346.483C420.241 353.48 423.105 359.922 424.902 367.434V379.835C422.446 388.232 418.95 395.602 414.828 402.33C412.07 404.494 407.632 404.957 404.743 406.983C403.012 407.595 401.719 408.616 399.306 408.529C399.031 410.588 395.358 409.237 394.656 410.857C373.768 412.616 355.703 410.323 334.94 410.084ZM398.536 386.037C404.762 386.568 405.604 381.73 407.836 378.278C407.719 368.58 409.41 357.055 400.082 356.554H398.536C395.266 359.75 391.628 362.606 390 367.428C389.883 371.676 389.921 375.781 390.782 379.051C393.7 381.05 393.709 385.953 398.536 386.037ZM319.419 388.357C322.808 390.59 327.194 391.058 331.063 389.139C336.688 383.454 334.083 368.278 330.276 362.767C317.303 358.882 314.518 378.874 319.419 388.357ZM363.632 389.139C363.762 388.24 364.854 388.303 365.959 388.357C367.517 386.533 368.007 383.162 366.741 380.614C363.822 377.826 358.361 379.381 358.194 383.715C358.657 386.884 360.468 388.676 363.632 389.139ZM366.741 397.674C364.179 397.701 362.869 398.978 359.755 398.439C354.68 398.093 354.388 392.95 348.902 393.026C348.466 394.132 347.69 394.913 346.569 395.341C347.791 403.43 354.968 405.551 363.632 406.21C365.445 405.959 366.537 404.982 369.055 405.423C372.831 402.918 381.68 399.201 376.815 393.026C371.432 392.536 370.199 396.215 366.741 397.674Z" fill="#8C9EEC"/>
<path d="M585.522 497.253C580.731 494.236 576.915 489.976 574.075 484.474C571.413 478.973 570.259 473.293 570.614 467.437C570.437 446.494 574.075 424.398 581.529 401.149C584.724 391.743 588.628 381.893 593.243 371.599C597.857 361.128 601.762 353.141 604.956 347.64C609.926 339.476 615.427 332.288 621.462 326.076C627.496 319.865 632.376 315.694 636.103 313.564C638.411 312.322 641.516 311.168 645.421 310.103C649.503 309.038 653.762 308.506 658.199 308.506C661.749 308.506 665.032 308.861 668.049 309.571C672.309 310.636 676.479 312.144 680.561 314.097C684.643 315.871 687.394 317.38 688.814 318.622C689.524 319.687 690.323 320.929 691.21 322.349C692.275 323.769 693.073 325.011 693.606 326.076C694.138 327.141 694.405 328.295 694.405 329.537C694.582 331.312 693.783 333.442 692.009 335.926C690.411 338.411 688.725 339.653 686.95 339.653C685.886 339.653 684.821 339.032 683.756 337.79C681.981 335.128 680.206 333.175 678.432 331.933C676.657 330.513 674.793 329.36 672.841 328.472C670.889 327.585 669.469 326.875 668.582 326.342C666.274 324.923 663.08 324.213 658.998 324.213C655.803 324.213 652.52 324.745 649.148 325.81C645.953 326.697 643.202 328.117 640.895 330.069C637.701 332.909 633.796 337.169 629.182 342.848C624.567 348.35 621.018 353.496 618.533 358.288C607.885 376.923 600.342 394.494 595.905 410.999C594.485 416.146 592.888 422.624 591.113 430.433C589.338 438.242 588.185 444.098 587.652 448.003C586.587 454.569 586.055 460.515 586.055 465.839C586.055 472.406 587.12 477.464 589.249 481.014C591.557 484.386 595.284 486.072 600.431 486.072C603.98 486.072 608.328 485.184 613.475 483.409C619.332 482.7 625.987 479.328 633.441 473.293C640.895 467.082 647.107 460.071 652.076 452.262C660.063 437.354 664.056 427.327 664.056 422.18C664.056 418.63 662.37 416.856 658.998 416.856C655.448 416.501 651.011 416.323 645.687 416.323C642.138 416.323 639.387 416.234 637.434 416.057C635.482 415.88 633.707 415.347 632.11 414.46C630.868 412.507 630.247 410.821 630.247 409.402C630.247 407.272 631.4 405.053 633.707 402.746C636.192 401.681 641.073 401.149 648.349 401.149C658.643 401.149 666.718 402.569 672.575 405.408C678.077 408.071 680.828 413.484 680.828 421.648C680.828 425.552 680.473 429.013 679.763 432.03C678.165 438.952 672.752 449.334 663.524 463.177C659.442 468.856 653.319 475.068 645.155 481.812C637.168 488.379 630.69 492.638 625.721 494.591C615.96 499.027 607.175 501.246 599.366 501.246C593.864 501.246 589.249 499.915 585.522 497.253Z" fill="#8C9EEC"/>
<path d="M727.7 372.398C726.458 371.155 725.393 369.026 724.506 366.009C723.618 362.991 723.618 361.483 724.506 361.483C725.925 361.305 727.523 359.797 729.297 356.957C731.25 353.94 732.137 351.455 731.96 349.503C731.96 348.793 732.226 348.172 732.758 347.64C733.291 346.93 733.912 346.486 734.622 346.309C736.042 345.421 737.284 344.978 738.349 344.978C741.366 344.978 744.117 347.107 746.601 351.367C747.666 353.674 748.199 355.715 748.199 357.49C748.199 359.087 747.755 360.773 746.868 362.548C745.98 364.145 744.383 366.275 742.076 368.937C739.059 373.019 736.219 375.06 733.557 375.06C731.782 375.06 729.83 374.172 727.7 372.398ZM701.877 480.481C699.393 477.996 698.15 474.447 698.15 469.833C698.15 467.348 698.594 465.218 699.481 463.443C699.481 462.556 699.659 461.491 700.014 460.249C700.369 459.006 700.546 458.208 700.546 457.853C700.369 456.788 701.079 453.86 702.676 449.068C705.87 441.969 710.13 429.457 715.454 411.531C715.454 410.644 715.809 409.934 716.519 409.402C717.229 408.692 718.294 408.248 719.714 408.071C721.133 407.716 722.11 407.538 722.642 407.538C723.707 407.538 724.594 407.982 725.304 408.869C726.192 409.579 727.345 410.999 728.765 413.129C729.83 414.194 730.362 415.791 730.362 417.921C730.362 421.293 729.209 425.375 726.901 430.166C724.594 435.313 723.086 439.75 722.376 443.477C720.246 448.269 718.56 452.706 717.318 456.788C716.963 457.853 716.43 459.983 715.72 463.177C715.011 466.372 714.034 468.945 712.792 470.897C711.727 475.867 710.751 479.328 709.864 481.28C708.976 483.232 708 484.208 706.935 484.208C705.693 484.208 704.007 482.966 701.877 480.481Z" fill="#8C9EEC"/>
<path d="M769.635 487.137C766.796 486.604 763.867 484.741 760.85 481.546C758.011 478.174 756.147 475.068 755.26 472.228C755.26 471.874 755.082 471.519 754.727 471.164C754.372 470.631 754.106 470.276 753.929 470.099C753.219 469.566 752.864 466.638 752.864 461.314C752.864 457.054 753.041 452.617 753.396 448.003C753.929 443.388 754.55 439.661 755.26 436.822L760.052 422.712L763.779 412.064L770.966 396.623L760.318 393.695C759.075 393.517 758.011 392.896 757.123 391.831C756.413 390.767 756.058 389.79 756.058 388.903C756.058 387.483 756.768 385.797 758.188 383.845C759.785 381.715 761.028 380.65 761.915 380.65C762.447 380.828 763.867 380.917 766.174 380.917C771.499 380.917 775.492 380.65 778.154 380.118C779.929 379.408 781.171 377.988 781.881 375.859C782.591 374.439 783.39 372.664 784.277 370.534C785.342 368.404 786.318 366.452 787.205 364.677C787.738 363.613 788.537 362.015 789.601 359.886C790.844 357.578 792.352 355.005 794.127 352.165C794.482 351.633 795.281 350.391 796.523 348.438C797.765 346.309 799.274 344.534 801.049 343.114C802.291 341.872 803.8 341.251 805.574 341.251C807.349 341.251 809.656 342.404 812.496 344.711C812.851 345.244 813.295 345.954 813.827 346.841C814.537 347.728 814.892 348.527 814.892 349.237C814.892 349.947 814.182 351.455 812.762 353.763C811.697 355.892 810.632 357.845 809.568 359.619C808.68 361.217 807.882 362.636 807.172 363.879C805.042 367.428 803.533 370.091 802.646 371.865C800.871 374.172 799.984 375.947 799.984 377.19C799.984 378.432 801.137 379.053 803.445 379.053C805.929 379.053 810.1 378.521 815.957 377.456C818.441 377.101 820.127 376.923 821.015 376.923C827.226 376.923 830.599 379.497 831.131 384.644C831.308 385.708 831.397 386.951 831.397 388.371C831.397 390.855 830.51 392.364 828.735 392.896C827.138 393.429 823.411 393.695 817.554 393.695C811.875 394.582 806.018 395.026 799.984 395.026C798.919 395.026 797.677 395.115 796.257 395.292C795.014 395.292 793.683 395.47 792.264 395.825C790.844 396.18 789.779 396.712 789.069 397.422C788.537 398.132 787.915 399.285 787.205 400.883C786.673 401.415 785.431 403.456 783.478 407.006C780.994 412.153 779.396 415.258 778.687 416.323C773.895 430.521 770.345 445.074 768.038 459.983C767.683 462.822 767.506 464.597 767.506 465.307C767.506 467.969 768.393 469.833 770.168 470.897C771.942 471.962 774.96 472.495 779.219 472.495C785.253 472.495 790.489 471.874 794.926 470.631C800.25 468.324 804.243 466.372 806.905 464.774C808.503 463.887 809.923 463.088 811.165 462.378C812.585 461.491 813.561 460.87 814.093 460.515C814.626 459.45 815.247 458.918 815.957 458.918C817.377 458.918 818.619 460.337 819.684 463.177C819.684 466.017 819.063 468.501 817.82 470.631C816.578 472.761 813.472 475.246 808.503 478.085C798.209 484.652 787.915 487.935 777.622 487.935C774.782 487.935 772.12 487.669 769.635 487.137Z" fill="#8C9EEC"/>
<path d="M920.594 480.747C917.932 482.167 915.092 482.877 912.075 482.877C907.638 482.877 904 480.925 901.16 477.02C898.498 473.116 897.167 467.88 897.167 461.314C897.167 458.297 897.788 453.327 899.03 446.406C900.273 439.306 901.693 433.45 903.29 428.835C903.467 428.48 903.734 427.77 904.089 426.706C904.444 425.641 904.532 424.931 904.355 424.576C904.355 424.043 904.177 423.777 903.822 423.777C902.935 423.777 901.338 424.931 899.03 427.238C894.061 431.498 888.737 436.911 883.058 443.477C877.378 449.866 872.675 456.078 868.948 462.112C865.221 467.969 863.358 472.051 863.358 474.358C863.358 476.31 862.559 477.819 860.962 478.884C859.542 479.949 857.856 480.481 855.904 480.481C854.661 480.481 853.508 480.215 852.443 479.682C849.781 478.085 847.917 476.31 846.852 474.358C845.965 472.406 845.521 469.566 845.521 465.839C845.521 462.822 845.61 460.426 845.787 458.651C846.497 446.406 847.74 435.668 849.514 426.439C851.467 417.033 855.105 403.722 860.429 386.507C860.607 385.975 862.293 381.449 865.487 372.93C870.989 357.312 874.095 348.793 874.805 347.373C876.047 346.131 877.822 342.315 880.129 335.926C882.614 329.36 883.856 325.366 883.856 323.947C883.856 321.284 884.744 319.066 886.518 317.291L889.181 314.629C890.778 314.629 892.641 315.339 894.771 316.759C896.901 318.001 898.232 319.51 898.764 321.284C900.007 323.592 900.628 326.076 900.628 328.738C900.628 331.223 899.829 334.329 898.232 338.056C896.812 341.605 894.327 346.841 890.778 353.763C885.631 364.056 880.839 375.859 876.402 389.169C874.45 394.849 871.699 403.722 868.15 415.791C864.777 427.682 863.091 434.603 863.091 436.556C863.091 437.798 863.713 438.419 864.955 438.419C866.375 438.419 867.883 437.354 869.481 435.225C870.19 433.805 873.563 430.344 879.597 424.842C880.307 424.132 884.3 420.494 891.576 413.927C898.853 407.183 904.089 403.811 907.283 403.811C909.413 403.811 911.454 404.61 913.406 406.207C915.536 407.804 916.956 409.668 917.666 411.798C918.375 412.507 918.908 413.217 919.263 413.927C919.618 414.637 919.973 415.17 920.328 415.525C920.683 415.88 920.86 416.944 920.86 418.719C920.86 424.931 918.908 433.893 915.003 445.607C911.986 457.32 910.478 464.331 910.478 466.638C910.478 468.235 910.921 469.034 911.809 469.034C912.341 468.679 913.406 468.058 915.003 467.17C916.601 466.283 918.464 465.218 920.594 463.976C926.628 459.894 931.952 457.853 936.567 457.853C938.697 457.853 939.761 458.563 939.761 459.983C939.761 460.337 939.495 460.959 938.963 461.846C938.43 462.733 938.164 463.443 938.164 463.976V465.307C938.164 466.194 935.768 468.856 930.976 473.293C926.184 477.73 922.724 480.215 920.594 480.747Z" fill="#8C9EEC"/>
<path d="M1020.19 488.468C1018.94 489.177 1017.26 488.911 1015.13 487.669C1013.18 486.427 1011.22 484.563 1009.27 482.078C1007.85 479.771 1006.96 477.375 1006.61 474.891C1006.43 472.406 1006.34 467.259 1006.34 459.45C1006.34 457.675 1005.99 456.788 1005.28 456.788C1004.74 456.788 1003.5 457.675 1001.55 459.45C999.598 461.047 997.202 463.266 994.363 466.105C989.748 470.542 985.489 474.003 981.584 476.488C977.68 478.973 974.485 480.126 972 479.949C970.048 479.949 967.919 478.618 965.611 475.955C963.482 473.293 961.796 470.187 960.553 466.638C960.021 464.508 959.755 462.024 959.755 459.184C959.755 451.73 961.263 442.679 964.28 432.03C967.475 421.381 971.113 412.241 975.195 404.61C979.455 396.801 983.182 392.896 986.376 392.896C989.038 392.896 991.523 395.825 993.83 401.681C994.363 402.746 994.629 403.634 994.629 404.344C994.629 405.586 993.919 406.828 992.499 408.071C989.837 411.443 986.731 417.477 983.182 426.173C979.632 434.87 976.792 442.945 974.663 450.399C972.71 457.853 972.355 461.58 973.598 461.58C976.082 461.58 979.011 460.604 982.383 458.651C985.755 456.699 989.127 454.126 992.499 450.931C995.871 447.559 998.888 444.01 1001.55 440.283C1004.21 436.378 1007.5 431.143 1011.4 424.576C1018.85 412.685 1022.94 405.763 1023.65 403.811C1026.31 398.842 1028.17 395.647 1029.24 394.227C1030.48 392.63 1031.99 391.565 1033.76 391.033H1037.49C1038.55 391.21 1039.8 392.009 1041.22 393.429C1042.46 393.961 1043.17 394.582 1043.35 395.292C1043.7 395.825 1043.88 396.623 1043.88 397.688L1039.62 407.538L1037.22 413.129C1037.05 413.839 1036.07 415.88 1034.29 419.252C1030.21 428.303 1027.11 435.579 1024.98 441.081C1022.85 446.583 1021.25 452.262 1020.19 458.119C1020.01 459.006 1019.92 460.515 1019.92 462.645C1019.92 467.969 1020.45 471.696 1021.52 473.826C1023.11 477.02 1024.71 479.328 1026.31 480.747C1027.2 481.457 1027.64 482.167 1027.64 482.877C1027.64 484.119 1026.57 485.362 1024.44 486.604C1022.49 487.846 1021.07 488.468 1020.19 488.468Z" fill="#8C9EEC"/>
<path d="M1154.92 409.135C1155.81 411.265 1156.25 413.129 1156.25 414.726C1156.25 418.808 1153.95 425.286 1149.33 434.16C1146.31 439.661 1142.85 444.986 1138.95 450.133C1135.04 455.102 1131.32 459.273 1127.77 462.645C1126.53 463.355 1124.93 464.508 1122.98 466.105C1121.2 467.703 1119.6 469.389 1118.18 471.164C1114.1 474.891 1109.13 477.819 1103.28 479.949C1097.6 481.901 1092.01 482.877 1086.5 482.877C1082.24 482.877 1078.61 482.256 1075.59 481.014C1072.57 479.771 1070.53 477.908 1069.47 475.423C1069.47 474.358 1069.29 473.205 1068.93 471.962C1068.76 470.72 1068.76 469.833 1068.93 469.3C1064.85 468.945 1062.72 468.235 1062.54 467.17C1062.72 461.846 1063.34 458.208 1064.41 456.256C1064.41 455.368 1065.12 452.972 1066.54 449.068C1067.6 446.228 1068.31 444.01 1068.67 442.412C1069.02 440.993 1069.82 436.999 1071.06 430.433C1072.31 423.689 1074.17 417.388 1076.65 411.531C1081.27 395.203 1085.08 383.579 1088.1 376.657C1090.41 367.783 1092.54 360.773 1094.49 355.626C1096.62 350.479 1099.37 344.268 1102.74 336.991L1106.74 328.738C1107.27 327.674 1108.6 323.947 1110.73 317.557C1111.08 316.67 1111.79 315.96 1112.86 315.428C1113.92 314.718 1115.08 314.363 1116.32 314.363C1118.27 314.363 1120.05 315.161 1121.64 316.759C1123.77 318.888 1124.84 320.841 1124.84 322.615C1124.84 324.39 1123.42 328.65 1120.58 335.394L1116.59 344.978C1115.17 346.752 1113.57 350.124 1111.79 355.094C1110.02 360.063 1108.87 363.346 1108.33 364.944C1104.25 374.705 1100.61 384.555 1097.42 394.494C1095.11 404.077 1092.45 413.661 1089.43 423.245L1096.89 415.258C1103.28 409.757 1110.55 404.965 1118.72 400.883C1126.88 396.623 1133.36 394.494 1138.15 394.494C1139.21 394.494 1140.28 394.671 1141.34 395.026C1143.65 395.736 1146.31 397.688 1149.33 400.883C1152.53 403.9 1154.39 406.651 1154.92 409.135ZM1129.36 437.62C1132.38 433.716 1135.04 429.102 1137.35 423.777C1139.84 418.453 1141.08 414.282 1141.08 411.265C1141.08 409.668 1140.63 408.869 1139.75 408.869C1138.86 408.869 1135.75 409.934 1130.43 412.064C1125.11 414.194 1121.82 415.88 1120.58 417.122C1120.58 417.654 1120.14 418.187 1119.25 418.719C1118.36 419.074 1117.74 419.34 1117.39 419.518C1107.45 426.972 1100.44 433.272 1096.35 438.419C1092.8 443.211 1088.1 450.133 1082.24 459.184C1080.47 462.733 1078.07 465.839 1075.06 468.501L1079.05 468.768C1084.91 468.058 1089.61 467.17 1093.16 466.105C1096.89 464.863 1101.15 462.733 1105.94 459.716C1116.23 451.73 1124.04 444.365 1129.36 437.62Z" fill="#8C9EEC"/>
<path fill-rule="evenodd" clip-rule="evenodd" d="M455.653 8C455.653 3.85786 459.011 0.5 463.153 0.5C506.622 0.5 546.618 6.34624 589.015 14.4925C604.241 17.418 619.415 20.2473 634.547 23.0688C706.846 36.5493 778.183 49.8506 849.601 72.6107C878.338 81.769 907.616 89.9695 937.023 98.2058C945.751 100.65 954.491 103.098 963.23 105.575C1001.32 116.37 1039.31 127.69 1075.73 141.583C1148.59 169.383 1215.68 207.676 1265.59 273.449C1306.86 327.848 1336.01 396.534 1328.25 466.366C1324.89 496.513 1316.06 519.539 1301.95 539.552C1287.95 559.395 1269.01 575.916 1246.11 593.373C1201.96 627.042 1140.26 642.569 1087.97 655.73C1083.79 656.779 1079.68 657.814 1075.65 658.841C1008.59 675.906 937.817 688.669 867.885 689.066C806.895 689.412 745.872 689.297 684.885 689.182C654.408 689.124 623.94 689.066 593.49 689.066C581.442 689.066 569.314 689.174 557.139 689.282C525.806 689.559 494.164 689.84 462.785 688.298C432.106 686.79 401.899 682.096 372.034 677.456C359.581 675.521 347.187 673.595 334.844 671.913C262.239 662.021 190.356 631.669 130.55 589.954C81.4653 555.717 50.7489 512.756 21.064 463.324C-8.86166 413.49 -4.69743 363.221 24.3003 315.115C39.0787 290.598 62.0743 274.071 83.4403 258.714C86.6666 256.396 89.8558 254.103 92.9738 251.815C100.327 246.417 107.725 240.723 115.219 234.954C135.077 219.668 155.613 203.86 177.778 191.68C263.255 144.708 358.937 113.681 457.073 113.681C473.9 113.681 490.954 113.373 508.145 113.063C586.953 111.64 668.651 110.165 744.65 138.059C748.539 139.487 750.534 143.796 749.107 147.684C747.679 151.573 743.37 153.568 739.482 152.141C666.376 125.309 588.124 126.684 509.434 128.067C491.985 128.374 474.514 128.681 457.073 128.681C362.077 128.681 268.874 158.736 185.002 204.826C163.92 216.411 144.796 231.132 125.272 246.161C117.575 252.086 109.816 258.059 101.85 263.906C98.5369 266.339 95.2335 268.72 91.9604 271.081C70.4302 286.605 50.2118 301.184 37.1469 322.858C10.5665 366.954 7.27827 411.231 33.9234 455.601C63.2473 504.432 92.6497 545.229 139.132 577.651C197.229 618.175 266.899 647.517 336.868 657.05C349.821 658.815 362.557 660.795 375.19 662.759C404.708 667.347 433.666 671.849 463.521 673.316C494.436 674.835 525.406 674.561 556.575 674.284C568.846 674.175 581.148 674.066 593.49 674.066C624.002 674.066 654.5 674.124 684.991 674.182C745.943 674.297 806.864 674.412 867.8 674.066C936.05 673.679 1005.52 661.21 1071.95 644.305C1075.82 643.318 1079.74 642.33 1083.69 641.333C1136.71 627.961 1195.44 613.146 1237.02 581.445C1259.61 564.214 1277.06 548.818 1289.69 530.907C1302.2 513.166 1310.24 492.6 1313.34 464.708C1320.53 400.034 1293.55 335.122 1253.64 282.516C1206.09 219.843 1141.87 182.873 1070.38 155.598C1034.62 141.953 997.16 130.782 959.14 120.007C950.503 117.559 941.83 115.13 933.143 112.697C903.688 104.447 874.062 96.1496 845.046 86.9025C774.6 64.4518 704.345 51.3484 632.079 37.8697C616.877 35.0342 601.585 32.1822 586.185 29.223C544.184 21.1529 505.249 15.5 463.153 15.5C459.011 15.5 455.653 12.1421 455.653 8Z" fill="#8C9EEC"/>
</svg>
