<svg width="1198" height="1193" viewBox="0 0 1198 1193" fill="none" xmlns="http://www.w3.org/2000/svg">
<mask id="path-1-inside-1" fill="white">
<path fill-rule="evenodd" clip-rule="evenodd" d="M760.168 1193C765.691 1193 770.168 1188.52 770.168 1183V893.07L1021.51 1038.18C1026.29 1040.94 1032.41 1039.3 1035.17 1034.52L1196.17 755.66C1198.93 750.877 1197.29 744.761 1192.51 742L941.012 596.799L1192.68 451.5C1197.46 448.739 1199.1 442.623 1196.34 437.84L1035.34 158.98C1032.57 154.197 1026.46 152.558 1021.68 155.319L770.168 300.528V10C770.168 4.47715 765.691 0 760.168 0L438.168 -2.90244e-05C432.645 -2.95072e-05 428.168 4.47709 428.168 9.99994L428.168 300.708L176.66 155.5C171.877 152.739 165.761 154.377 163 159.16L1.99978 438.02C-0.761641 442.803 0.877081 448.919 5.66001 451.681L257.012 596.799L5.82836 741.819C1.04543 744.581 -0.593317 750.697 2.16811 755.48L163.168 1034.34C165.93 1039.12 172.045 1040.76 176.828 1038L428.168 892.889L428.168 1183C428.168 1188.52 432.645 1193 438.168 1193H760.168Z"/>
</mask>
<path fill-rule="evenodd" clip-rule="evenodd" d="M760.168 1193C765.691 1193 770.168 1188.52 770.168 1183V893.07L1021.51 1038.18C1026.29 1040.94 1032.41 1039.3 1035.17 1034.52L1196.17 755.66C1198.93 750.877 1197.29 744.761 1192.51 742L941.012 596.799L1192.68 451.5C1197.46 448.739 1199.1 442.623 1196.34 437.84L1035.34 158.98C1032.57 154.197 1026.46 152.558 1021.68 155.319L770.168 300.528V10C770.168 4.47715 765.691 0 760.168 0L438.168 -2.90244e-05C432.645 -2.95072e-05 428.168 4.47709 428.168 9.99994L428.168 300.708L176.66 155.5C171.877 152.739 165.761 154.377 163 159.16L1.99978 438.02C-0.761641 442.803 0.877081 448.919 5.66001 451.681L257.012 596.799L5.82836 741.819C1.04543 744.581 -0.593317 750.697 2.16811 755.48L163.168 1034.34C165.93 1039.12 172.045 1040.76 176.828 1038L428.168 892.889L428.168 1183C428.168 1188.52 432.645 1193 438.168 1193H760.168Z" fill="white"/>
<path d="M770.168 893.07L805.668 831.582L699.168 770.094V893.07H770.168ZM1021.51 1038.18L1057.01 976.693L1057.01 976.693L1021.51 1038.18ZM1035.17 1034.52L1096.66 1070.02L1096.66 1070.02L1035.17 1034.52ZM1196.17 755.66L1134.68 720.16L1134.68 720.16L1196.17 755.66ZM1192.51 742L1157.01 803.488L1157.01 803.488L1192.51 742ZM941.012 596.799L905.512 535.311L799.012 596.799L905.512 658.286L941.012 596.799ZM1192.68 451.5L1228.18 512.988L1228.18 512.988L1192.68 451.5ZM1196.34 437.84L1134.85 473.34L1134.85 473.34L1196.34 437.84ZM1035.34 158.98L1096.82 123.48L1096.82 123.479L1035.34 158.98ZM1021.68 155.319L986.176 93.8315L986.176 93.8316L1021.68 155.319ZM770.168 300.528H699.168V423.503L805.668 362.015L770.168 300.528ZM760.168 0L760.168 71H760.168V0ZM438.168 -2.90244e-05L438.168 -71L438.168 -2.90244e-05ZM428.168 9.99994L499.168 9.99994V9.99994H428.168ZM428.168 300.708L392.668 362.196L499.168 423.684L499.168 300.708L428.168 300.708ZM176.66 155.5L212.16 94.0121L212.16 94.0121L176.66 155.5ZM163 159.16L101.512 123.66L101.512 123.66L163 159.16ZM1.99978 438.02L-59.488 402.52L-59.488 402.52L1.99978 438.02ZM5.66001 451.681L-29.8402 513.168L-29.84 513.168L5.66001 451.681ZM257.012 596.799L292.512 658.286L399.012 596.799L292.512 535.311L257.012 596.799ZM5.82836 741.819L41.3283 803.307L41.3284 803.307L5.82836 741.819ZM2.16811 755.48L63.6559 719.98L63.6558 719.979L2.16811 755.48ZM163.168 1034.34L224.656 998.84L224.656 998.84L163.168 1034.34ZM176.828 1038L141.328 976.512L141.328 976.513L176.828 1038ZM428.168 892.889L499.168 892.889L499.168 769.913L392.668 831.401L428.168 892.889ZM428.168 1183L357.168 1183V1183H428.168ZM699.168 1183C699.168 1149.31 726.479 1122 760.168 1122V1264C804.903 1264 841.168 1227.74 841.168 1183H699.168ZM699.168 893.07V1183H841.168V893.07H699.168ZM734.668 954.557L986.008 1099.67L1057.01 976.693L805.668 831.582L734.668 954.557ZM986.008 1099.67C1024.75 1122.04 1074.29 1108.76 1096.66 1070.02L973.68 999.02C990.525 969.845 1027.83 959.848 1057.01 976.693L986.008 1099.67ZM1096.66 1070.02L1257.66 791.16L1134.68 720.16L973.68 999.02L1096.66 1070.02ZM1257.66 791.161C1280.02 752.418 1266.75 702.879 1228.01 680.512L1157.01 803.488C1127.83 786.643 1117.84 749.336 1134.68 720.16L1257.66 791.161ZM1228.01 680.512L976.512 535.311L905.512 658.286L1157.01 803.488L1228.01 680.512ZM976.512 658.286L1228.18 512.988L1157.18 390.012L905.512 535.311L976.512 658.286ZM1228.18 512.988C1266.92 490.62 1280.19 441.081 1257.82 402.339L1134.85 473.34C1118 444.164 1128 406.857 1157.18 390.013L1228.18 512.988ZM1257.82 402.34L1096.82 123.48L973.849 194.48L1134.85 473.34L1257.82 402.34ZM1096.82 123.479C1074.46 84.7384 1024.92 71.4639 986.176 93.8315L1057.18 216.807C1028 233.652 990.693 223.655 973.849 194.48L1096.82 123.479ZM986.176 93.8316L734.668 239.04L805.668 362.015L1057.18 216.807L986.176 93.8316ZM699.168 10V300.528H841.168V10H699.168ZM760.168 71C726.479 71 699.168 43.6895 699.168 10H841.168C841.168 -34.7352 804.903 -71 760.168 -71V71ZM438.168 71L760.168 71L760.168 -71L438.168 -71L438.168 71ZM499.168 9.99994C499.168 43.6897 471.857 71 438.168 71L438.168 -71C393.434 -71 357.168 -34.7355 357.168 9.99994H499.168ZM499.168 300.708L499.168 9.99994L357.168 9.99993L357.168 300.708L499.168 300.708ZM463.668 239.22L212.16 94.0121L141.16 216.988L392.668 362.196L463.668 239.22ZM212.16 94.0121C173.418 71.6446 123.88 84.9185 101.512 123.66L224.488 194.66C207.643 223.836 170.336 233.832 141.16 216.988L212.16 94.0121ZM101.512 123.66L-59.488 402.52L63.4876 473.52L224.488 194.66L101.512 123.66ZM-59.488 402.52C-81.8554 441.262 -68.5818 490.801 -29.8402 513.168L41.1602 390.193C70.336 407.038 80.3322 444.345 63.4876 473.52L-59.488 402.52ZM-29.84 513.168L221.512 658.286L292.512 535.311L41.16 390.193L-29.84 513.168ZM221.512 535.311L-29.6716 680.332L41.3284 803.307L292.512 658.286L221.512 535.311ZM-29.6715 680.331C-68.4133 702.699 -81.6873 752.238 -59.3196 790.98L63.6558 719.979C80.5007 749.155 70.5041 786.463 41.3283 803.307L-29.6715 680.331ZM-59.3197 790.98L101.68 1069.84L224.656 998.84L63.6559 719.98L-59.3197 790.98ZM101.68 1069.84C124.047 1108.58 173.586 1121.86 212.329 1099.49L141.328 976.513C170.505 959.667 207.812 969.665 224.656 998.84L101.68 1069.84ZM212.328 1099.49L463.668 954.377L392.668 831.401L141.328 976.512L212.328 1099.49ZM499.168 1183L499.168 892.889L357.168 892.889L357.168 1183L499.168 1183ZM438.168 1122C471.858 1122 499.168 1149.31 499.168 1183H357.168C357.168 1227.73 393.433 1264 438.168 1264V1122ZM760.168 1122H438.168V1264H760.168V1122Z" fill="white" mask="url(#path-1-inside-1)"/>
</svg>
